<mxfile host="app.diagrams.net" modified="2023-08-22T06:16:03.462Z" agent="Mozilla/5.0 (Macintosh; Intel Mac OS X 10_15_7) AppleWebKit/537.36 (KHTML, like Gecko) Chrome/115.0.0.0 Safari/537.36 Edg/115.0.1901.203" version="21.6.8" etag="a2hqMQye7rUDToBw9E50" type="github">
  <diagram name="第 1 页" id="iIqfqn4ksaIbMHNYcGh0">
    <mxGraphModel>
      <root>
        <mxCell id="0" />
        <mxCell id="1" parent="0" />
      </root>
    </mxGraphModel>
  </diagram>
</mxfile>
